<svg fill="none" height="20" viewBox="0 0 20 20" width="20" xmlns="http://www.w3.org/2000/svg"><path d="m12.4829 18.2961c-.7988.8372-2.0916.3869-2.4309-.5904-.27995-.8063-.6436-1.7718-.99794-2.4827-1.05964-2.1259-1.67823-3.3355-3.38432-4.849-.22637-.2008-.51811-.3626-.84069-.49013-1.12914-.44632-2.19096-1.61609-1.91324-3.0047l.35304-1.76517c.1857-.92855.88009-1.67247 1.79366-1.92162l5.59969-1.52721c2.5456-.694232 5.1395.94051 5.6115 3.53646l.6839 3.7617c.3348 1.84147-1.0799 3.53667-2.9516 3.53667h-.8835l.0103.0522c.0801.4082.1765.9703.241 1.5829.0642.6103.0983 1.2844.048 1.9126-.0493.6163-.1839 1.2491-.5042 1.7296-.1095.1643-.2721.3484-.4347.5188z" fill="#212121"/></svg>